<svg enable-background="new 0 0 98.7 101.6" height="101.6" viewBox="0 0 98.7 101.6" width="98.7" xmlns="http://www.w3.org/2000/svg"><circle cx="49" cy="50.7" fill="none" r="44" stroke="#fff" stroke-miterlimit="10" stroke-width="3"/><g fill="#fff"><path d="m41.2 64.7v-18.8h-6.2v18.8zm-3.1-21.4c2.2 0 3.6-1.4 3.6-3.3-.1-1.9-1.3-3.3-3.5-3.3s-3.6 1.4-3.6 3.3 1.4 3.3 3.5 3.3z"/><path d="m44.7 64.7h6.3v-10.5c0-.6.1-1.1.2-1.6.4-1.1 1.5-2.3 3.2-2.3 2.2 0 3.2 1.7 3.2 4.2v10h6.3v-10.6c0-5.8-3.1-8.5-7.2-8.5-3.3 0-4.8 1.9-5.7 3.2v-2.8h-6.3c.1 1.9 0 18.9 0 18.9z"/></g></svg>