<svg enable-background="new 0 0 98.7 101.6" height="101.6" viewBox="0 0 98.7 101.6" width="98.7" xmlns="http://www.w3.org/2000/svg"><circle cx="49" cy="50.7" fill="none" r="44" stroke="#fff" stroke-miterlimit="10" stroke-width="3"/><path d="m62.9 52.9v.2-.3c-.1 0-.1 0 0 .1.2-.8.2-1.7.2-2.5 0-1.9-.4-3.7-1.1-5.4s-1.7-3.2-3-4.4c-1.3-1.3-2.8-2.3-4.4-3-1.7-.7-3.6-1.1-5.4-1.1-.9 0-1.8.1-2.7.2s.1 0 .1.1h-.3.1c-1.2-.6-2.5-1-3.9-1-2.2 0-4.3.9-5.9 2.4-1.6 1.6-2.4 3.6-2.4 5.9 0 1.4.4 2.8 1 4 0-.1 0-.1 0-.2l.1.3s0-.1-.1-.1c-.1.8-.2 1.6-.2 2.4 0 1.9.4 3.7 1.1 5.4s1.7 3.2 3 4.4c1.3 1.3 2.8 2.3 4.4 3 1.7.7 3.6 1.1 5.4 1.1.8 0 1.6-.1 2.5-.2 0 0-.1-.1-.1-.1l.3.1c-.1 0-.1 0-.2 0 1.2.7 2.6 1.1 4.1 1.1 2.2 0 4.3-.9 5.9-2.4 1.6-1.6 2.4-3.6 2.4-5.9.1-1.5-.2-2.9-.9-4.1zm-13.7 6c-5 0-7.2-2.4-7.2-4.3 0-.9.7-1.6 1.7-1.6 2.1 0 1.6 3.1 5.5 3.1 2 0 3.2-1.1 3.2-2.2 0-.7-.3-1.4-1.7-1.8l-4.5-1.1c-3.6-.9-4.2-2.8-4.2-4.6 0-3.8 3.5-5.2 6.9-5.2 3.1 0 6.7 1.7 6.7 3.9 0 1-.8 1.5-1.8 1.5-1.8 0-1.5-2.5-5.1-2.5-1.8 0-2.8.8-2.8 2s1.4 1.5 2.7 1.8l3.3.7c3.6.8 4.5 2.9 4.5 4.9-.2 3.1-2.5 5.4-7.2 5.4z" fill="#fff"/></svg>