<svg enable-background="new 0 0 98.7 101.6" height="101.6" viewBox="0 0 98.7 101.6" width="98.7" xmlns="http://www.w3.org/2000/svg"><circle cx="49" cy="50.7" fill="none" r="44" stroke="#fff" stroke-miterlimit="10" stroke-width="3"/><path d="m65.1 40.9c-1.2.6-2.5.9-3.8 1 1.4-.8 2.4-2.1 2.9-3.7-1.2.8-2.7 1.4-4.2 1.6-1.2-1.3-2.9-2.1-4.8-2.1-3.7 0-6.6 3-6.6 6.6 0 .5.1 1 .1 1.5-5.5-.2-10.4-2.8-13.6-6.8-.6 1-.9 2.1-.9 3.3 0 2.3 1.2 4.3 3 5.5-1.1 0-2.1-.3-3-.8v.1c0 3.2 2.3 5.9 5.3 6.5-.6.1-1.1.2-1.7.2-.4 0-.8-.1-1.2-.1.8 2.6 3.2 4.6 6.1 4.6-2.3 1.7-5.1 2.7-8.2 2.7-.6 0-1 0-1.6-.1 2.9 1.9 6.4 3 10.1 3 12.1 0 18.8-10.1 18.8-18.8 0-.3 0-.6 0-.8 1.3-.9 2.4-2.1 3.3-3.4z" fill="#fff"/></svg>